{"accessors":[{"bufferView":0,"byteOffset":0,"componentType":5126,"count":216,"max":[11,1.5,8],"min":[-11,-1.5,-8],"normalized":false,"type":"VEC3"},{"bufferView":1,"byteOffset":0,"componentType":5126,"count":216,"max":[0,0,1,1],"min":[-1,-1,-1,-1],"normalized":false,"type":"VEC4"},{"bufferView":2,"byteOffset":0,"componentType":5126,"count":216,"max":[1,1,1],"min":[-1,-1,-1],"normalized":false,"type":"VEC3"},{"bufferView":3,"byteOffset":0,"componentType":5126,"count":216,"max":[1,1],"min":[0,0],"normalized":false,"type":"VEC2"},{"bufferView":4,"byteOffset":0,"componentType":5123,"count":216,"max":[215],"min":[0],"normalized":false,"type":"SCALAR"},{"bufferView":5,"byteOffset":0,"componentType":5126,"count":60,"max":[6.5,1.5,5.25],"min":[1.59999990463257,-1.5,-5.25],"normalized":false,"type":"VEC3"},{"bufferView":6,"byteOffset":0,"componentType":5126,"count":60,"max":[0,0,0.0000763009302318096,1],"min":[-1,-1,-1,-1],"normalized":false,"type":"VEC4"},{"bufferView":7,"byteOffset":0,"componentType":5126,"count":60,"max":[1,1,1],"min":[-1,-1,-1],"normalized":false,"type":"VEC3"},{"bufferView":8,"byteOffset":0,"componentType":5126,"count":60,"max":[1,1],"min":[0,0],"normalized":false,"type":"VEC2"},{"bufferView":9,"byteOffset":0,"componentType":5123,"count":60,"max":[59],"min":[0],"normalized":false,"type":"SCALAR"},{"bufferView":10,"byteOffset":0,"componentType":5126,"count":120,"max":[14,1.5,9.5],"min":[-14,-1.5,-9.5],"normalized":false,"type":"VEC3"},{"bufferView":11,"byteOffset":0,"componentType":5126,"count":120,"max":[0,0,0.0000763009302318096,1],"min":[-1,-1,-1,-1],"normalized":false,"type":"VEC4"},{"bufferView":12,"byteOffset":0,"componentType":5126,"count":120,"max":[1,1,1],"min":[-1,-1,-1],"normalized":false,"type":"VEC3"},{"bufferView":13,"byteOffset":0,"componentType":5126,"count":120,"max":[1,1],"min":[0,0],"normalized":false,"type":"VEC2"},{"bufferView":14,"byteOffset":0,"componentType":5123,"count":120,"max":[119],"min":[0],"normalized":false,"type":"SCALAR"},{"bufferView":15,"byteOffset":0,"componentType":5126,"count":60,"max":[4.5,1.5,-1.75],"min":[-4.5,-1.5,-15.25],"normalized":false,"type":"VEC3"},{"bufferView":16,"byteOffset":0,"componentType":5126,"count":60,"max":[0,0,0.0000763009302318096,1],"min":[-1,-1,-1,-1],"normalized":false,"type":"VEC4"},{"bufferView":17,"byteOffset":0,"componentType":5126,"count":60,"max":[1,1,1],"min":[-1,-1,-1],"normalized":false,"type":"VEC3"},{"bufferView":18,"byteOffset":0,"componentType":5126,"count":60,"max":[1,1],"min":[0,0],"normalized":false,"type":"VEC2"},{"bufferView":19,"byteOffset":0,"componentType":5123,"count":60,"max":[59],"min":[0],"normalized":false,"type":"SCALAR"},{"bufferView":20,"byteOffset":0,"componentType":5126,"count":1215,"max":[28,4.59999990463257,6],"min":[-35.5,-1.5,-31.75],"normalized":false,"type":"VEC3"},{"bufferView":21,"byteOffset":0,"componentType":5126,"count":1215,"max":[0.000275325524853542,0.0178113002330065,1,1],"min":[-1,-1,-1,1],"normalized":false,"type":"VEC4"},{"bufferView":22,"byteOffset":0,"componentType":5126,"count":1215,"max":[1,1,1],"min":[-1,-1,-1],"normalized":false,"type":"VEC3"},{"bufferView":23,"byteOffset":0,"componentType":5126,"count":1215,"max":[1,1],"min":[0,0],"normalized":false,"type":"VEC2"},{"bufferView":24,"byteOffset":0,"componentType":5123,"count":1215,"max":[1214],"min":[0],"normalized":false,"type":"SCALAR"}],"asset":{"generator":"Godot Engine v4.3.stable.official@77dcf97d82cbfe4e4615475fa52ca03da645dbd8","version":"2.0"},"bufferViews":[{"buffer":0,"byteLength":2592,"byteOffset":0,"byteStride":12,"target":34962},{"buffer":0,"byteLength":3456,"byteOffset":2592,"byteStride":16,"target":34962},{"buffer":0,"byteLength":2592,"byteOffset":6048,"byteStride":12,"target":34962},{"buffer":0,"byteLength":1728,"byteOffset":8640,"byteStride":8,"target":34962},{"buffer":0,"byteLength":432,"byteOffset":10368,"target":34963},{"buffer":0,"byteLength":720,"byteOffset":10800,"byteStride":12,"target":34962},{"buffer":0,"byteLength":960,"byteOffset":11520,"byteStride":16,"target":34962},{"buffer":0,"byteLength":720,"byteOffset":12480,"byteStride":12,"target":34962},{"buffer":0,"byteLength":480,"byteOffset":13200,"byteStride":8,"target":34962},{"buffer":0,"byteLength":120,"byteOffset":13680,"target":34963},{"buffer":0,"byteLength":1440,"byteOffset":13800,"byteStride":12,"target":34962},{"buffer":0,"byteLength":1920,"byteOffset":15240,"byteStride":16,"target":34962},{"buffer":0,"byteLength":1440,"byteOffset":17160,"byteStride":12,"target":34962},{"buffer":0,"byteLength":960,"byteOffset":18600,"byteStride":8,"target":34962},{"buffer":0,"byteLength":240,"byteOffset":19560,"target":34963},{"buffer":0,"byteLength":720,"byteOffset":19800,"byteStride":12,"target":34962},{"buffer":0,"byteLength":960,"byteOffset":20520,"byteStride":16,"target":34962},{"buffer":0,"byteLength":720,"byteOffset":21480,"byteStride":12,"target":34962},{"buffer":0,"byteLength":480,"byteOffset":22200,"byteStride":8,"target":34962},{"buffer":0,"byteLength":120,"byteOffset":22680,"target":34963},{"buffer":0,"byteLength":14580,"byteOffset":22800,"byteStride":12,"target":34962},{"buffer":0,"byteLength":19440,"byteOffset":37380,"byteStride":16,"target":34962},{"buffer":0,"byteLength":14580,"byteOffset":56820,"byteStride":12,"target":34962},{"buffer":0,"byteLength":9720,"byteOffset":71400,"byteStride":8,"target":34962},{"buffer":0,"byteLength":2430,"byteOffset":81120,"target":34963}],"buffers":[{"byteLength":83552,"uri":"main_level0.bin"}],"extensions":{"KHR_lights_punctual":{"lights":[{"color":[1,1,1],"intensity":1,"range":340282346638528860000000000000000000000,"type":"directional"}]}},"extensionsUsed":["GODOT_single_root","KHR_lights_punctual"],"images":[{"uri":"textures%2F_albedo000.png"}],"materials":[{"extensions":{},"pbrMetallicRoughness":{"baseColorFactor":[0.99999988079071,0.99999988079071,0.99999988079071,1],"baseColorTexture":{"index":0},"metallicFactor":0,"roughnessFactor":1}}],"meshes":[{"extras":{"targetNames":[]},"primitives":[{"attributes":{"NORMAL":2,"POSITION":0,"TANGENT":1,"TEXCOORD_0":3},"indices":4,"material":0,"mode":4}]},{"extras":{"targetNames":[]},"primitives":[{"attributes":{"NORMAL":7,"POSITION":5,"TANGENT":6,"TEXCOORD_0":8},"indices":9,"material":0,"mode":4}]},{"extras":{"targetNames":[]},"primitives":[{"attributes":{"NORMAL":12,"POSITION":10,"TANGENT":11,"TEXCOORD_0":13},"indices":14,"material":0,"mode":4}]},{"extras":{"targetNames":[]},"primitives":[{"attributes":{"NORMAL":17,"POSITION":15,"TANGENT":16,"TEXCOORD_0":18},"indices":19,"material":0,"mode":4}]},{"extras":{"targetNames":[]},"primitives":[{"attributes":{"NORMAL":22,"POSITION":20,"TANGENT":21,"TEXCOORD_0":23},"indices":24,"material":0,"mode":4}]}],"nodes":[{"children":[1,2,3,6,8,10,12,24],"name":"MainLevel"},{"name":"WorldEnvironment"},{"extensions":{"KHR_lights_punctual":{"light":0}},"name":"DirectionalLight3D","rotation":[-0.12941072881222,0.836515307426453,0.482963681221008,0.22414530813694]},{"children":[4,5],"mesh":0,"name":"Overhang2","translation":[-20.1000003814697,1.5,11.3999996185303]},{"name":"Overhang22","translation":[2.19999885559082,0,4.89999961853027]},{"name":"Corridor7","rotation":[0,0.70710676908493,0,0.70710676908493],"translation":[-5.19193744659424,-0.25,-7.27436065673828]},{"children":[7],"mesh":1,"name":"Overhang24","translation":[-25.1000003814697,1.5,-4.84999990463257]},{"name":"Overhang3","translation":[-4.90000009536743,0,0]},{"children":[9],"mesh":2,"name":"Overhang33","translation":[0.899999976158142,1.5,-8.85000038146973]},{"name":"Overhang4","translation":[0.350000381469727,0,-0.35000038146973]},{"children":[11],"mesh":3,"name":"Overhang43","translation":[27.3999996185303,1.5,-0.60000002384186]},{"name":"Overhang5","translation":[0,0,6.75]},{"children":[13],"mesh":4,"name":"Room2","translation":[3.90000009536743,1.5,13.3999996185303]},{"children":[14,15,16,17,18,19,20,21,22,23],"name":"CSGCombiner3D"},{"name":"Room22","translation":[-24,1.5,-2]},{"name":"Corridor","translation":[-9.39193725585938,-0.25,-0.27436065673828]},{"name":"Corridor2","rotation":[0,0.70710676908493,0,0.70710676908493],"translation":[-28.8919372558594,-0.25,-9.27436065673828]},{"name":"Corridor3","rotation":[0,0.70710676908493,0,0.70710676908493],"translation":[-28.8920001983643,2.75,-9.27400016784668]},{"name":"Corridor4","translation":[-18.8920001983643,2.75,-17.5669689178467]},{"name":"Corridor5","rotation":[0,0.70710676908493,0,0.70710676908493],"translation":[-11.0990314483643,2.75,-10.5669689178467]},{"name":"Corridor6","translation":[14.9009685516357,2.75,-23.7169704437256]},{"name":"Room3","translation":[-29,1.5,-18.25]},{"name":"Room4","translation":[-3,1.5,-22.25]},{"name":"Room5","translation":[23.5,1.59999990463257,-14]},{"name":"Sprite3D","scale":[2.40000009536743,2.40000009536743,2.40000009536743],"translation":[0,0.200000002980232,0]}],"samplers":[{"magFilter":9729,"minFilter":9987,"wrapS":10497,"wrapT":10497}],"scene":0,"scenes":[{"nodes":[0]}],"textures":[{"sampler":0,"source":0}]}